<mxfile host="app.diagrams.net" modified="2023-03-06T09:43:36.909Z" agent="5.0 (Windows NT 10.0; Win64; x64) AppleWebKit/537.36 (KHTML, like Gecko) Chrome/110.0.0.0 Safari/537.36 Edg/110.0.1587.63" etag="0WeqKhInWYDp3TW80Uo-" version="20.8.21" type="github">
  <diagram id="BRX0UXYL2Ztd1ZTYvwSK" name="Page-1">
    <mxGraphModel dx="1418" dy="779" grid="1" gridSize="10" guides="1" tooltips="1" connect="1" arrows="1" fold="1" page="1" pageScale="1" pageWidth="1169" pageHeight="827" math="0" shadow="0">
      <root>
        <mxCell id="0" />
        <mxCell id="1" parent="0" />
        <mxCell id="50Qbc8Lr1CrhEB3h8eA_-40" value="" style="whiteSpace=wrap;html=1;rounded=0;shadow=0;glass=0;labelBackgroundColor=#FFF2CC;" parent="1" vertex="1">
          <mxGeometry x="170" y="80" width="660" height="350" as="geometry" />
        </mxCell>
        <mxCell id="50Qbc8Lr1CrhEB3h8eA_-2" value="Polaris (SaaS)" style="text;strokeColor=none;align=center;fillColor=none;html=1;verticalAlign=middle;whiteSpace=wrap;rounded=0;fontSize=20;" parent="1" vertex="1">
          <mxGeometry x="210" y="120" width="190" height="30" as="geometry" />
        </mxCell>
        <mxCell id="50Qbc8Lr1CrhEB3h8eA_-3" value="CI/CD system" style="rounded=1;whiteSpace=wrap;html=1;align=left;verticalAlign=top;spacingLeft=9;fillColor=#ffcc99;strokeColor=#36393d;" parent="1" vertex="1">
          <mxGeometry x="210" y="170" width="150" height="110" as="geometry" />
        </mxCell>
        <mxCell id="50Qbc8Lr1CrhEB3h8eA_-4" value="Synopsys&lt;br&gt;Bridge" style="rounded=0;whiteSpace=wrap;html=1;align=center;verticalAlign=middle;fillColor=#fad9d5;strokeColor=#ae4132;" parent="1" vertex="1">
          <mxGeometry x="230" y="210" width="90" height="50" as="geometry" />
        </mxCell>
        <mxCell id="50Qbc8Lr1CrhEB3h8eA_-7" value="Polaris (Saas)&amp;nbsp;&lt;br&gt;Hosted in GCP" style="rounded=1;whiteSpace=wrap;html=1;arcSize=5;align=left;verticalAlign=top;spacingLeft=17;labelBackgroundColor=#FFFFFF;fillColor=#dae8fc;strokeColor=#6c8ebf;" parent="1" vertex="1">
          <mxGeometry x="550" y="150" width="240" height="230" as="geometry" />
        </mxCell>
        <mxCell id="50Qbc8Lr1CrhEB3h8eA_-34" value="https&amp;nbsp;" style="edgeStyle=orthogonalEdgeStyle;rounded=0;orthogonalLoop=1;jettySize=auto;html=1;exitX=0.5;exitY=0;exitDx=0;exitDy=0;entryX=0;entryY=0.5;entryDx=0;entryDy=0;startArrow=classic;startFill=1;" parent="1" source="50Qbc8Lr1CrhEB3h8eA_-4" target="50Qbc8Lr1CrhEB3h8eA_-7" edge="1">
          <mxGeometry relative="1" as="geometry">
            <mxPoint x="570" y="260.5" as="targetPoint" />
          </mxGeometry>
        </mxCell>
        <mxCell id="50Qbc8Lr1CrhEB3h8eA_-37" value="Developer" style="shape=umlActor;verticalLabelPosition=bottom;verticalAlign=top;html=1;outlineConnect=0;rounded=1;shadow=0;glass=0;labelBackgroundColor=#FFF2CC;" parent="1" vertex="1">
          <mxGeometry x="200" y="314" width="30" height="60" as="geometry" />
        </mxCell>
        <mxCell id="50Qbc8Lr1CrhEB3h8eA_-39" value="https" style="edgeStyle=orthogonalEdgeStyle;rounded=0;orthogonalLoop=1;jettySize=auto;html=1;startArrow=classic;startFill=1;" parent="1" source="50Qbc8Lr1CrhEB3h8eA_-38" edge="1">
          <mxGeometry relative="1" as="geometry">
            <mxPoint x="550" y="267" as="targetPoint" />
            <Array as="points">
              <mxPoint x="430" y="344" />
              <mxPoint x="430" y="267" />
            </Array>
          </mxGeometry>
        </mxCell>
        <mxCell id="50Qbc8Lr1CrhEB3h8eA_-38" value="Developer IDE" style="rounded=1;whiteSpace=wrap;html=1;align=left;verticalAlign=middle;spacingLeft=9;fillColor=#fad9d5;strokeColor=#ae4132;" parent="1" vertex="1">
          <mxGeometry x="250" y="326" width="100" height="36" as="geometry" />
        </mxCell>
      </root>
    </mxGraphModel>
  </diagram>
</mxfile>
